<?xml version="1.0" encoding="UTF-8" standalone="no"?>
<!-- Created with Inkscape (http://www.inkscape.org/) -->

<svg
   width="34.418346mm"
   height="34.418304mm"
   viewBox="0 0 34.418346 34.418304"
   version="1.1"
   id="svg1"
   xml:space="preserve"
   inkscape:version="1.3.2 (091e20ef0f, 2023-11-25)"
   sodipodi:docname="Logo v3.svg"
   xmlns:inkscape="http://www.inkscape.org/namespaces/inkscape"
   xmlns:sodipodi="http://sodipodi.sourceforge.net/DTD/sodipodi-0.dtd"
   xmlns="http://www.w3.org/2000/svg"
   xmlns:svg="http://www.w3.org/2000/svg"><sodipodi:namedview
     id="namedview1"
     pagecolor="#ffffff"
     bordercolor="#000000"
     borderopacity="0.25"
     inkscape:showpageshadow="2"
     inkscape:pageopacity="0.0"
     inkscape:pagecheckerboard="0"
     inkscape:deskcolor="#d1d1d1"
     inkscape:document-units="mm"
     inkscape:zoom="0.71622834"
     inkscape:cx="670.87544"
     inkscape:cy="521.48174"
     inkscape:window-width="1920"
     inkscape:window-height="1002"
     inkscape:window-x="0"
     inkscape:window-y="0"
     inkscape:window-maximized="1"
     inkscape:current-layer="layer1"
     inkscape:export-bgcolor="#ffffff00"
     showguides="false" /><defs
     id="defs1" /><g
     inkscape:label="Calque 1"
     inkscape:groupmode="layer"
     id="layer1"
     transform="translate(-255.74075,-120.33127)"><g
       id="g89"
       inkscape:export-filename="favicon.png"
       inkscape:export-xdpi="47.230625"
       inkscape:export-ydpi="47.230625"><path
         id="path62"
         style="fill:#ca0404;fill-opacity:1;stroke:none;stroke-width:0.320706;stroke-linecap:square;stroke-linejoin:round;stroke-miterlimit:1;stroke-dasharray:none;stroke-opacity:1"
         d="m 272.95005,120.33128 c -3.48752,0.011 -7.63348,1.82445 -10.49901,3.81231 h 21.0438 c -2.87837,-1.99673 -7.04165,-3.81061 -10.54479,-3.81231 z m 13.39594,6.66535 v 21.04135 c 1.98774,-2.86546 3.8021,-7.01031 3.8131,-10.49768 -0.002,-3.50306 -1.81645,-7.66531 -3.8131,-10.54367 z m -26.79187,0.0454 c -1.98794,2.86558 -3.8024,7.01065 -3.81336,10.49824 0.011,3.48759 1.82542,7.63266 3.81336,10.49823 z m 2.8972,23.89523 c 2.86545,1.98781 7.01131,3.80127 10.49873,3.81232 3.48732,-0.0111 7.63307,-1.82457 10.49845,-3.81232 z"
         sodipodi:nodetypes="cccccccccccccccc" /><path
         id="path88"
         style="fill:#ca0404;fill-opacity:1;stroke:none;stroke-width:0.320706;stroke-linecap:square;stroke-linejoin:round;stroke-miterlimit:1;stroke-dasharray:none;stroke-opacity:1"
         d="m 274.24352,127.06843 v 3.77969 h -9.62291 l -2.81425,1.75899 v 2.33599 h 3.39114 v 11.84817 h 4.01307 v -5.08299 h 3.1244 v -3.83635 h -3.1244 v -2.92883 h 6.15021 v 6.89488 c 0,1.77302 0.3846,3.0911 1.15378,3.95416 0.77856,0.85368 1.2352,1.28046 2.85797,1.28046 0.77856,0 1.18972,-0.0937 1.97765,-0.28133 0.79732,-0.197 1.43513,-0.44564 1.91352,-0.74584 v -3.7853 c -0.31892,0.1501 -0.68488,0.27224 -1.09761,0.36605 -0.40335,0.0844 -0.76436,0.1265 -1.08329,0.1265 -0.42211,0 -0.75048,-0.13115 -0.98499,-0.39382 -0.2345,-0.27205 -0.35163,-0.64747 -0.35163,-1.12591 v -6.28985 h 3.51752 v -4.09498 h -3.53943 v -3.77969 z"
         sodipodi:nodetypes="ccccccccccccccscsccccscscccccc" /></g></g></svg>
