<?xml version="1.0" encoding="UTF-8" standalone="no"?>
<!-- Uploaded to: SVG Repo, www.svgrepo.com, Generator: SVG Repo Mixer Tools -->

<svg
   aria-label="Malt"
   role="img"
   viewBox="0 0 512 512"
   version="1.1"
   id="svg1"
   sodipodi:docname="codeur.svg"
   inkscape:version="1.3.2 (091e20ef0f, 2023-11-25)"
   xml:space="preserve"
   xmlns:inkscape="http://www.inkscape.org/namespaces/inkscape"
   xmlns:sodipodi="http://sodipodi.sourceforge.net/DTD/sodipodi-0.dtd"
   xmlns="http://www.w3.org/2000/svg"
   xmlns:svg="http://www.w3.org/2000/svg"><defs
     id="defs1" /><sodipodi:namedview
     id="namedview1"
     pagecolor="#ffffff"
     bordercolor="#000000"
     borderopacity="0.25"
     inkscape:showpageshadow="2"
     inkscape:pageopacity="0.0"
     inkscape:pagecheckerboard="0"
     inkscape:deskcolor="#d1d1d1"
     inkscape:zoom="1.4667969"
     inkscape:cx="256"
     inkscape:cy="256"
     inkscape:window-width="1920"
     inkscape:window-height="1006"
     inkscape:window-x="0"
     inkscape:window-y="0"
     inkscape:window-maximized="1"
     inkscape:current-layer="svg1" /><path
     style="fill:#ffffff;stroke:none;stroke-width:1.17734"
     d="M 222.42969,3.0861994 C 166.99214,10.27836 98.515058,11.728302 55.432995,52.802742 29.4786,77.547688 18.051408,114.40304 11.123764,148.42419 c -14.3380739,70.4133 -15.5757453,148.18783 0.756994,218.37066 7.437447,31.95919 16.766999,66.44809 40.865319,90.43706 60.954953,60.67841 187.302403,59.33363 266.712223,49.94467 46.55489,-5.50438 105.88376,-15.12611 139.90082,-49.94467 24.02266,-24.58861 34.98675,-60.38263 41.75541,-93.10012 14.29518,-69.09825 14.54625,-143.87711 0.54278,-213.04454 C 495.02544,118.33033 484.96435,83.276204 461.80893,57.919302 411.52773,2.8577123 292.36436,-5.9867091 222.42969,3.0861994 m 26.95239,92.8391966 c 47.5584,-5.771021 166.78754,29.546834 102.37956,89.532984 -28.95,26.96252 -43.78826,6.59348 -75.42716,1.12396 -28.79796,-4.9784 -57.35033,9.95774 -72.85464,33.74438 -5.18028,7.94756 -9.01344,17.22315 -10.19868,26.63058 -1.34741,10.69454 -0.46071,21.87742 3.45848,31.95667 3.47672,8.9413 8.5991,16.91715 15.19194,23.92639 49.86308,53.01266 106.16791,-21.43377 149.21352,34.66086 27.92478,36.39001 -12.83915,60.4663 -44.38204,70.95525 -146.85883,48.83497 -276.79188,-122.05893 -184.653,-246.717 12.15891,-16.45023 26.8882,-30.64271 44.50056,-41.36572 22.18085,-13.50448 47.00189,-21.321319 72.77146,-24.448354 z"
     id="path1" /></svg>
