<?xml version="1.0" encoding="UTF-8" standalone="no"?>
<!-- Uploaded to: SVG Repo, www.svgrepo.com, Generator: SVG Repo Mixer Tools -->

<svg
   aria-label="Malt"
   role="img"
   viewBox="0 0 512 512"
   version="1.1"
   id="svg1"
   sodipodi:docname="malt.svg"
   inkscape:version="1.3.2 (091e20ef0f, 2023-11-25)"
   xmlns:inkscape="http://www.inkscape.org/namespaces/inkscape"
   xmlns:sodipodi="http://sodipodi.sourceforge.net/DTD/sodipodi-0.dtd"
   xmlns="http://www.w3.org/2000/svg"
   xmlns:svg="http://www.w3.org/2000/svg">
  <defs
     id="defs1" />
  <sodipodi:namedview
     id="namedview1"
     pagecolor="#ffffff"
     bordercolor="#000000"
     borderopacity="0.25"
     inkscape:showpageshadow="2"
     inkscape:pageopacity="0.0"
     inkscape:pagecheckerboard="0"
     inkscape:deskcolor="#d1d1d1"
     inkscape:zoom="1.4667969"
     inkscape:cx="256"
     inkscape:cy="256"
     inkscape:window-width="1920"
     inkscape:window-height="1006"
     inkscape:window-x="0"
     inkscape:window-y="0"
     inkscape:window-maximized="1"
     inkscape:current-layer="svg1" />
  <path
     fill="#fc5656"
     d="M 438.22719,73.89199 C 399.49348,35.277467 358.25698,60.3054 332.39479,86.04842 L 88.31285,330.13035 c -25.8622,25.8622 -52.916202,65.19181 -12.15643,105.83241 40.6406,40.64059 79.85103,13.58659 105.71323,-12.27561 L 425.95158,179.60521 c 25.8622,-25.74301 50.89013,-67.09869 12.27561,-105.71322 z m -233.2365,-10.01117 51.72439,51.72439 52.55866,-52.67784 c 3.57542,-3.57541 7.15084,-6.912472 10.84544,-10.011169 C 314.63687,25.147114 298.78585,0 256.5959,0 c -42.18994,0 -58.04097,25.266294 -63.40409,53.035382 3.93296,3.456238 7.86592,6.912478 11.79888,10.845438 z m 104.28305,383.88082 -52.55866,-52.55866 -51.72439,51.60521 c -3.93296,3.93296 -7.74674,7.62756 -11.6797,10.96462 C 199.27002,486.1378 215.95531,512 256.5959,512 c 40.75978,0 57.56425,-26.10056 63.4041,-54.46555 -3.57542,-3.0987 -7.15084,-6.19739 -10.72626,-9.77281 z M 183.06145,189.13966 H 83.42644 C 46.837989,189.13966 0,200.70019 0,255.28492 c 0,40.87895 26.100559,57.56424 54.58473,63.40409 3.337058,-3.81378 128.47672,-129.54935 128.47672,-129.54935 z m 275.90317,2.74116 c -3.0987,3.57542 -128.5959,129.66853 -128.5959,129.66853 h 98.20484 c 36.58845,0 83.42644,-8.70019 83.42644,-66.26443 0,-42.07077 -25.14711,-57.92179 -53.03538,-63.4041 z M 215.71695,156.48417 233.47486,138.72626 181.86965,87.00186 C 156.00745,61.13966 116.79702,34.085661 76.03724,74.84544 c -29.795154,29.79516 -23.121039,58.87523 -7.3892,82.35382 4.88641,-0.35755 147.06891,-0.71509 147.06891,-0.71509 z m 81.87709,197.72067 -17.87709,17.8771 52.67784,52.55866 c 25.86219,25.86219 67.09869,50.89013 105.71322,12.2756 28.84171,-28.84171 22.28678,-59.23277 6.31657,-83.42644 -5.12477,0.35754 -146.83054,0.71508 -146.83054,0.71508 z"
     id="path1"
     style="stroke-width:1.19181;fill:#ffffff" />
</svg>
